<?xml version="1.0" encoding="utf-8"?><!-- Uploaded to: SVG Repo, www.svgrepo.com, Generator: SVG Repo Mixer Tools -->
<svg version="1.1" id="designs" xmlns="http://www.w3.org/2000/svg" xmlns:xlink="http://www.w3.org/1999/xlink" 
	 width="800px" height="800px" viewBox="0 0 32 32" xml:space="preserve">
<style type="text/css">
	.sketchy_een{fill:#111918;}
</style>
<path class="sketchy_een" d="M27.776,26.905c-0.002-0.357-0.002-0.713,0-1.07c0.006-0.785,0.004-1.57,0.01-2.355
	c0.006-0.742,0.027-1.482,0.031-2.223c0.002-0.707-0.016-1.412-0.018-2.117c-0.002-0.729-0.02-1.457-0.041-2.186
	c-0.012-0.361-0.025-0.719-0.051-1.078c-0.027-0.393-0.021-0.785-0.025-1.178c-0.006-0.783-0.08-1.562-0.102-2.344
	c-0.02-0.736-0.002-1.475-0.021-2.211c-0.023-0.891-0.029-1.779-0.039-2.67c-0.01-1.039,0.02-2.08,0.014-3.119
	c0-0.05-0.021-0.094-0.03-0.143c0.02-0.121,0.019-0.244-0.014-0.363c-0.053-0.191-0.201-0.43-0.393-0.512
	c-0.195-0.082-0.336-0.135-0.555-0.139c-0.053-0.002-0.104,0.002-0.156,0.002c-0.131,0.004-0.264,0.012-0.395,0.012
	c-0.342,0.002-0.684-0.016-1.023-0.035c-0.537-0.03-1.078-0.037-1.616-0.037c-0.194,0-0.388,0.001-0.581,0.002
	c-1.533,0.006-3.07,0.029-4.604,0.082c-0.787,0.027-1.576,0.066-2.365,0.08c-0.83,0.014-1.658,0.002-2.488,0
	c-0.326,0-0.65,0-0.977,0c-0.486,0.002-0.975,0.002-1.461-0.002c-0.832-0.006-1.664-0.031-2.494-0.049
	C8.32,3.252,8.264,3.274,8.206,3.288C8.109,3.244,8.004,3.216,7.895,3.216c-0.42,0-0.758,0.346-0.762,0.762
	C7.127,4.379,7.122,4.781,7.117,5.183C7.056,5.169,6.999,5.145,6.934,5.145c-0.002,0-0.005,0-0.007,0
	c-0.471,0.002-0.941,0.008-1.414,0.02C5.03,5.176,4.628,5.559,4.628,6.051c0,0.469,0.402,0.902,0.885,0.885
	c0.473-0.018,0.943-0.041,1.414-0.061C6.985,6.872,7.036,6.85,7.091,6.838C7.08,7.483,7.068,8.128,7.047,8.772
	c0,0.015-0.001,0.031-0.001,0.046C6.911,8.829,6.781,8.851,6.664,8.903C6.291,8.917,5.918,8.937,5.546,8.959
	C5.077,8.988,4.683,9.33,4.683,9.822c0,0.443,0.393,0.896,0.863,0.861c0.404-0.031,0.81-0.064,1.214-0.106
	c0.077,0.025,0.16,0.017,0.241,0.019c-0.002,0.103-0.006,0.207-0.008,0.31c-0.014,0.695-0.033,1.392-0.037,2.088
	C6.69,13.02,6.424,13.05,6.158,13.056c-0.369,0.008-0.738-0.004-1.107-0.004c-0.473,0-0.867,0.395-0.867,0.867
	c0,0.469,0.395,0.873,0.867,0.867c0.348-0.004,0.697-0.008,1.045-0.033c0.285-0.02,0.571-0.041,0.858-0.054
	c0.002,0.362,0.006,0.725,0.02,1.087c0.013,0.348,0.01,0.696,0.016,1.043c-0.031,0.004-0.062,0.003-0.093,0.011
	c-0.058,0.014-0.116,0.024-0.174,0.034c-0.209,0.017-0.42,0.013-0.63,0.013c-0.352-0.002-0.703-0.004-1.057-0.004
	c-0.459,0-0.844,0.383-0.844,0.846c0,0.457,0.383,0.85,0.844,0.844c0.656-0.005,1.314-0.026,1.971-0.017
	C7,19.268,6.99,19.981,6.977,20.696c-0.003,0.14-0.001,0.28-0.003,0.42c-0.175,0.011-0.35,0.026-0.528,0.025
	c-0.438-0.002-0.877-0.014-1.314-0.012C4.657,21.133,4.26,21.524,4.26,22c0,0.467,0.396,0.885,0.871,0.873
	c0.402-0.01,0.803-0.027,1.205-0.037c0.209-0.006,0.419-0.003,0.627,0.012c0,0.01,0,0.021,0,0.031
	c0.002,0.641,0.004,1.281,0.009,1.921c-0.087,0.002-0.174,0.005-0.261,0.005c-0.086,0-0.17,0-0.254,0
	c-0.379,0.006-0.758,0.02-1.137,0.037c-0.461,0.023-0.848,0.369-0.848,0.85c0,0.439,0.387,0.877,0.848,0.848
	c0.404-0.025,0.811-0.049,1.215-0.072c0.148-0.009,0.297-0.017,0.446-0.024c-0.001,0.016,0,0.031-0.001,0.047
	c-0.02,0.396-0.02,0.793-0.039,1.189c-0.014,0.308,0.176,0.57,0.431,0.72c0.154,0.23,0.408,0.386,0.705,0.402
	c0.912,0.051,1.834,0.07,2.748,0.049c0.418-0.01,0.836-0.041,1.254-0.07c0.398-0.027,0.791-0.039,1.191-0.035
	c0.871,0.01,1.738,0.018,2.609-0.002c0.861-0.02,1.723-0.025,2.582,0.027c0.775,0.049,1.557,0.061,2.332,0.025
	c0.762-0.033,1.527-0.049,2.291-0.043c1.24,0.01,2.48,0.041,3.721-0.01c0.208-0.009,0.392-0.091,0.549-0.207
	c0.007-0.003,0.012-0.008,0.018-0.012c0.039-0.03,0.079-0.057,0.113-0.093c0.126-0.104,0.231-0.232,0.268-0.399
	c0.051-0.227,0.037-0.434,0.027-0.658C27.774,27.217,27.776,27.061,27.776,26.905z M26.116,26.949
	c-0.658,0.051-1.325,0.042-1.982,0.048c-0.764,0.008-1.529,0.012-2.293,0.039c-0.861,0.029-1.721,0.059-2.584,0.041
	c-0.439-0.008-0.877-0.043-1.316-0.045c-0.439-0.004-0.879,0.006-1.316,0.01c-0.717,0.006-1.432,0.016-2.146,0.021
	c-0.324,0.002-0.65-0.008-0.975-0.012c-0.352-0.004-0.701,0.014-1.051,0.033c-0.68,0.041-1.352,0.123-2.033,0.115
	c-0.589-0.006-1.177-0.045-1.766-0.081c0.003-0.143-0.001-0.285,0.007-0.428c0.018-0.322,0.012-0.646,0.016-0.969
	c0.006-0.359,0.002-0.721,0-1.08c-0.002-0.326,0.002-0.654-0.012-0.979c-0.016-0.35-0.018-0.699-0.021-1.049
	c-0.004-0.381-0.025-0.762-0.037-1.143c-0.023-0.805-0.01-1.611,0-2.418c0.016-1.6-0.082-3.197-0.084-4.795
	c0-1.576,0.074-3.148,0.104-4.723C8.641,8.7,8.59,7.86,8.582,7.022C8.575,6.285,8.603,5.549,8.629,4.813
	c0.749-0.002,1.498-0.029,2.247-0.04c0.812-0.012,1.625-0.01,2.438-0.004c1.633,0.012,3.264-0.041,4.896-0.072
	c0.758-0.016,1.516-0.027,2.273-0.029c0.742-0.002,1.482,0.016,2.225,0.02c0.703,0.004,1.408,0.025,2.107,0.094
	c0.344,0.033,0.689,0.055,1.033,0.078c0.008,0.001,0.016,0.001,0.024,0.001c0.017,0.748,0.039,1.497,0.036,2.246
	c-0.002,0.779-0.037,1.555-0.047,2.334c-0.012,0.719-0.023,1.438-0.02,2.156c0.006,0.82,0.039,1.641,0.078,2.461
	c0.035,0.738,0.027,1.48,0.07,2.221c0.041,0.719,0.074,1.441,0.076,2.162c0.008,1.416,0.053,2.832,0.047,4.248
	c-0.004,0.904-0.006,1.809-0.002,2.713c0.004,0.43,0.01,0.857,0.006,1.287C26.116,26.775,26.117,26.862,26.116,26.949z
	 M24.831,22.395c0.016,0.656,0.043,1.309,0.072,1.963c0.021,0.465-0.402,0.854-0.852,0.854c-0.482,0-0.83-0.389-0.854-0.854
	c-0.01-0.195,0.004-0.391-0.002-0.586c-0.008-0.229-0.01-0.459-0.008-0.688c0.004-0.414-0.012-0.828-0.012-1.24
	c0-0.377,0.008-0.754,0.004-1.131c-0.006-0.387-0.02-0.773-0.027-1.158c-0.018-0.805,0.02-1.609,0.023-2.414
	c0.004-0.77,0.014-1.541,0.027-2.312c0.016-0.844,0.012-1.684-0.004-2.527c-0.006-0.391,0.33-0.715,0.715-0.715
	c0.391,0,0.711,0.324,0.713,0.715c0.008,1.043-0.039,2.086-0.043,3.129c-0.004,0.777,0.053,1.551,0.074,2.328
	c0.01,0.414,0.021,0.828,0.033,1.244c0.012,0.375,0.043,0.75,0.062,1.125C24.798,20.883,24.814,21.639,24.831,22.395z"/>
</svg>